<svg xmlns="http://www.w3.org/2000/svg">
  <symbol id="left-arrow" viewBox="0 0 7 11">
    <path d="M7 1.43662L5.55025 0L0 5.5L5.55025 11L7 9.56338L2.9003 5.5L7 1.43662Z"/>
  </symbol>
  <symbol id="heart" viewBox="0 1.8 22 18.5">
    <path d="M21.9 7.8C21.9 13.9 11 20 11 20S.1 14 .1 7.8C.1 5 2.2 2 5.5 1.8c4-.3 5.5 2.6 5.5 2.6s1.5-2.9 5.5-2.6c3.2.2 5.4 3.2 5.4 6z"/>
  </symbol>
  <symbol id="lightning-bolt" viewBox="-30 551.5 12 7">
    <path d="M-24 551.7l-5.9 3c-.1 0 0 .3.1.2l4-.5c.3 0 .6.2.6.5v2.6c0 .6.6 1 1.2.7l5.9-3c.2-.1.1-.3-.1-.3l-4.1.6c-.3 0-.6-.2-.6-.5v-2.6c.1-.6-.5-1-1.1-.7z"/>
  </symbol>
</svg>
